<?xml version="1.0" encoding="utf-8"?>
<!-- Generator: Adobe Illustrator 16.0.0, SVG Export Plug-In . SVG Version: 6.00 Build 0)  -->
<!DOCTYPE svg PUBLIC "-//W3C//DTD SVG 1.1//EN" "http://www.w3.org/Graphics/SVG/1.1/DTD/svg11.dtd">
<svg version="1.1" id="Layer_1" xmlns="http://www.w3.org/2000/svg" xmlns:xlink="http://www.w3.org/1999/xlink" x="0px" y="0px"
	 width="239.25px" height="80px" viewBox="0 0 239.25 80" enable-background="new 0 0 239.25 80" xml:space="preserve">
<g>
	<g>
		<path fill="#864B33" d="M32.302,13.791h-1.305C30.605,7.68,27.332,3.123,20.522,3.1c-9.705-0.033-10.171,9.906-10.171,16.707
			c0,6.209,1.215,16.428,9.865,16.428c5.131,0,10.434-5.737,10.997-11.7h1.305v9.955c-3.26,1.527-8.649,3.224-12.474,3.224
			c-9.957,0-16.305-7.262-16.305-17.907c0-10.595,6.348-18.185,16.305-18.185c3.824,0,8.17,0.391,12.257,2.166V13.791z"/>
	</g>
	<g>
		<path fill="#864B33" d="M34.932,37.23v-1.479h4.867V3.472h-4.867V1.993h14.434c4.696,0,10.915,0.148,10.915,7.836
			c0,5.667-3.045,7.291-7.393,8.424v0.099c5.999,0.542,9.135,3.009,9.172,10.451c0.028,5.317,0.694,7.047,4.606,7.047v1.38h-5.301
			c-5.123,0.032-5.654-5.421-5.654-9.955c0-6.505-3.476-7.986-7.127-7.986l-3.155-0.098v16.464l5.372,0.097v1.479H34.932z
			 M45.429,17.712l3.197,0.097c3.609,0,5.498-0.543,5.498-6.851s-1.889-7.437-6.497-7.437l-2.198-0.097V17.712z"/>
	</g>
	<g>
		<path fill="#642667" d="M68.489,37.2V1.947h21.357v5.42H77.368v9.726h11.89v5.42h-11.89V37.2H68.489z"/>
	</g>
	<g>
		<path fill="#642667" d="M100.111,1.833v35.253L92.296,37.2V1.947L100.111,1.833z"/>
	</g>
	<g>
		<path fill="#642667" d="M109.6,25.345c0,2.93,0.205,8.601,4.201,8.643c4.126,0.043,4.399-2.974,4.399-5.025l7.536-0.062
			c-0.117,2.685-1.175,4.882-3.176,6.396c-1.939,1.513-4.881,2.416-8.76,2.393c-9.799-0.058-12.113-5.42-12.113-13.135
			c0-6.738,2.414-12.837,12.554-12.792c10.815,0.048,11.967,5.606,11.673,13.515L109.6,25.345z M118.2,21.727
			c0-2.393,0.186-6.094-3.755-6.094c-3.822,0-4.477,3.971-4.477,6.07L118.2,21.727z"/>
	</g>
	<g>
		<path fill="#642667" d="M125.67,11.85h3.353v-4.6l8.017-1.51v6.29h4.294v3.554h-4.294v14.57c0,1.855,0.888,2.836,3.14,2.632
			c0.527-0.048,1.227-0.243,1.639-0.341v4.164c-1.297,0.478-2.681,0.837-4.681,0.837c-7.174,0-8.114-3.956-8.114-5.469V15.404
			h-3.353V11.85z"/>
	</g>
	<g>
		<path fill="#642667" d="M158.403,21.332c0-3.662-1.117-5.576-3.705-5.576c-3.528,0-4.515,3.281-4.515,8.408
			c0,7.519,1.457,9.824,4.515,9.824c2.588,0,3.823-2.646,3.823-5.869h7.597c0,6.689-3.88,9.732-12.112,9.57
			c-9.255-0.183-12.114-5.42-12.114-13.135c0-6.738,3.024-13.062,12.731-13.062c7.646,0,11.377,3.395,11.377,9.839H158.403z"/>
	</g>
	<g>
		<path fill="#642667" d="M183.661,37.015V20.023c0-2.197-0.87-4.012-3.516-4.012c-2.647,0-4.372,2-4.372,4.197V37.2h-7.599V1.947
			h7.599v13.085h0.117c1.242-0.862,2.217-1.678,3.334-2.118c1.176-0.488,2.594-1.255,5.522-1.171
			c3.938,0.112,6.937,2.264,6.937,5.682V37.2L183.661,37.015z"/>
	</g>
	<g>
		<path fill="#642667" d="M226.755,12.079v4.626l0.25,0.083c1.529-2.832,3.264-5.63,8.226-4.734v6.153
			c-6.301-1.359-8.058,1.319-8.104,5.566V37.2l-7.987-0.103l0.038-25.122L226.755,12.079z"/>
	</g>
	<g>
		<path fill="#642667" d="M201.451,25.273c0,2.93,0.206,8.601,4.201,8.642c4.128,0.044,4.4-2.974,4.4-5.024l7.537-0.062
			c-0.119,2.685-1.176,4.882-3.175,6.396c-1.94,1.514-4.882,2.416-8.763,2.393c-9.799-0.058-12.112-5.42-12.112-13.135
			c0-6.738,2.415-12.838,12.554-12.793c10.815,0.048,11.967,5.606,11.673,13.516L201.451,25.273z M210.053,21.655
			c0-2.393,0.186-6.094-3.754-6.094c-3.822,0-4.478,3.971-4.478,6.07L210.053,21.655z"/>
	</g>
	<g>
		<g>
			<path fill="#642667" d="M71.522,52.146l-1.169,2.262h-1.557l4.205-7.77h1.713l4.047,7.77h-1.65l-1.105-2.262H71.522z
				 M75.461,51.217l-1.65-3.42h-0.031l-1.79,3.42H75.461z"/>
		</g>
		<g>
			<path fill="#642667" d="M90.006,48.912c-0.079-1.201-1.511-1.58-2.772-1.58c-0.949,0-2.553,0.184-2.553,1.363
				c0,0.66,0.669,0.877,1.323,0.984l3.191,0.509c1.448,0.238,2.538,0.845,2.538,2.077c0,1.84-2.46,2.35-4.376,2.35
				c-2.07,0-2.879-0.434-3.377-0.747c-0.95-0.596-1.138-1.245-1.138-1.97h1.417c0,1.406,1.65,1.817,3.083,1.817
				c1.09,0,2.928-0.194,2.928-1.309c0-0.812-0.546-1.071-2.383-1.374L85.6,50.664c-0.732-0.118-2.383-0.476-2.383-1.828
				c0-1.212,1.137-2.402,3.845-2.402c3.909,0,4.298,1.623,4.36,2.479H90.006z"/>
		</g>
		<g>
			<path fill="#642667" d="M103.507,48.912c-0.078-1.201-1.511-1.58-2.772-1.58c-0.949,0-2.553,0.184-2.553,1.363
				c0,0.66,0.669,0.877,1.323,0.984l3.192,0.509c1.448,0.238,2.538,0.845,2.538,2.077c0,1.84-2.461,2.35-4.376,2.35
				c-2.071,0-2.88-0.434-3.379-0.747c-0.949-0.596-1.137-1.245-1.137-1.97h1.417c0,1.406,1.65,1.817,3.083,1.817
				c1.091,0,2.928-0.194,2.928-1.309c0-0.812-0.545-1.071-2.383-1.374l-2.288-0.369c-0.732-0.118-2.384-0.476-2.384-1.828
				c0-1.212,1.138-2.402,3.847-2.402c3.909,0,4.298,1.623,4.36,2.479H103.507z"/>
		</g>
		<g>
			<path fill="#642667" d="M115.14,54.615c-4.173,0-5.45-2.414-5.45-4.091c0-1.678,1.277-4.091,5.45-4.091
				c4.172,0,5.449,2.413,5.449,4.091C120.589,52.201,119.312,54.615,115.14,54.615z M115.14,47.363c-2.43,0-3.894,1.332-3.894,3.161
				s1.464,3.159,3.894,3.159c2.429,0,3.892-1.33,3.892-3.159S117.568,47.363,115.14,47.363z"/>
		</g>
		<g>
			<path fill="#642667" d="M133.343,48.977c-0.42-1.363-2.055-1.613-3.13-1.613c-2.023,0-3.658,1.04-3.658,3.086
				c0,1.828,0.934,3.234,3.705,3.234c0.98,0,2.679-0.324,3.192-2.131h1.464c-0.623,2.932-4.049,3.062-4.89,3.062
				c-2.538,0-5.028-1.148-5.028-4.135c0-2.391,1.961-4.047,5.215-4.047c2.881,0,4.376,1.244,4.594,2.543H133.343z"/>
		</g>
		<g>
			<path fill="#642667" d="M141.597,54.408h-1.511v-7.77h1.511V54.408z"/>
		</g>
		<g>
			<path fill="#642667" d="M149.055,52.146l-1.167,2.262h-1.557l4.203-7.77h1.713l4.049,7.77h-1.65l-1.105-2.262H149.055z
				 M152.995,51.217l-1.65-3.42h-0.031l-1.791,3.42H152.995z"/>
		</g>
		<g>
			<path fill="#642667" d="M157.965,46.639h9.078v0.932h-3.784v6.838h-1.51V47.57h-3.784V46.639z"/>
		</g>
		<g>
			<path fill="#642667" d="M179.967,54.408h-8.251v-7.77h8.143v0.932h-6.633v2.38h6.119v0.931h-6.119v2.598h6.741V54.408z"/>
		</g>
		<g>
			<path fill="#642667" d="M191.802,48.912c-0.077-1.201-1.51-1.58-2.771-1.58c-0.95,0-2.552,0.184-2.552,1.363
				c0,0.66,0.668,0.877,1.322,0.984l3.192,0.509c1.448,0.238,2.538,0.845,2.538,2.077c0,1.84-2.461,2.35-4.376,2.35
				c-2.071,0-2.88-0.434-3.378-0.747c-0.95-0.596-1.137-1.245-1.137-1.97h1.417c0,1.406,1.649,1.817,3.082,1.817
				c1.09,0,2.928-0.194,2.928-1.309c0-0.812-0.545-1.071-2.383-1.374l-2.288-0.369c-0.732-0.118-2.383-0.476-2.383-1.828
				c0-1.212,1.138-2.402,3.846-2.402c3.909,0,4.298,1.623,4.36,2.479H191.802z"/>
		</g>
		<g>
			<path fill="#642667" d="M207.75,54.408h-1.511v-7.77h1.511V54.408z"/>
		</g>
		<g>
			<path fill="#642667" d="M220.86,46.639h1.464v7.77h-1.698l-5.682-6.275h-0.031v6.275h-1.465v-7.77h1.792l5.589,6.276h0.031
				V46.639z"/>
		</g>
		<g>
			<path fill="#642667" d="M235.653,48.977c-0.42-1.363-2.055-1.613-3.13-1.613c-2.023,0-3.658,1.04-3.658,3.086
				c0,1.828,0.934,3.234,3.706,3.234c0.98,0,2.678-0.324,3.191-2.131h1.464c-0.623,2.932-4.049,3.062-4.89,3.062
				c-2.538,0-5.028-1.148-5.028-4.135c0-2.391,1.961-4.047,5.215-4.047c2.882,0,4.376,1.244,4.595,2.543H235.653z"/>
		</g>
	</g>
	<g>
		<rect x="2" y="40.309" fill="#864B33" width="233.963" height="1"/>
	</g>
</g>
<g>
	<path fill="#642667" d="M28.089,75.785c0,0.834-0.307,1.494-0.92,1.982c-0.612,0.488-1.427,0.731-2.443,0.731
		c-1.222,0-2.158-0.134-2.81-0.403v-0.697c0.72,0.305,1.639,0.458,2.755,0.458c0.82,0,1.471-0.188,1.951-0.563
		c0.481-0.377,0.722-0.869,0.722-1.48c0-0.379-0.08-0.691-0.239-0.939c-0.159-0.249-0.419-0.476-0.779-0.681
		s-0.889-0.427-1.586-0.663c-1.021-0.352-1.727-0.73-2.115-1.139c-0.391-0.407-0.585-0.951-0.585-1.63
		c0-0.747,0.293-1.356,0.878-1.829c0.586-0.471,1.339-0.707,2.26-0.707c0.938,0,1.82,0.178,2.646,0.533l-0.253,0.602
		c-0.829-0.346-1.622-0.52-2.379-0.52c-0.738,0-1.326,0.171-1.764,0.513s-0.656,0.807-0.656,1.395c0,0.369,0.067,0.673,0.201,0.909
		c0.135,0.236,0.354,0.45,0.66,0.639c0.306,0.189,0.829,0.416,1.572,0.681c0.779,0.269,1.365,0.53,1.757,0.782
		c0.392,0.254,0.678,0.541,0.858,0.861C27.999,74.941,28.089,75.33,28.089,75.785z"/>
	<path fill="#642667" d="M32.806,78.362h-0.704v-9.338h-3.247v-0.656h7.198v0.656h-3.247V78.362z"/>
	<path fill="#642667" d="M42.349,74.835h-4.061l-1.395,3.527h-0.772l4.02-10.035h0.444l3.938,10.035h-0.786L42.349,74.835z
		 M38.541,74.206h3.575l-1.36-3.603c-0.114-0.283-0.251-0.674-0.41-1.176c-0.123,0.438-0.258,0.834-0.403,1.189L38.541,74.206z"/>
	<path fill="#642667" d="M46.635,78.362h-0.697v-9.994h5.476v0.643h-4.778v4.238h4.512v0.649h-4.512V78.362z"/>
	<path fill="#642667" d="M53.662,78.362h-0.697v-9.994h5.476v0.643h-4.778v4.238h4.512v0.649h-4.512V78.362z"/>
	<path fill="#642667" d="M59.992,78.362v-9.994h0.697v9.994H59.992z"/>
	<path fill="#642667" d="M70.786,78.362h-0.704l-5.92-8.873h-0.055c0.055,1.058,0.082,1.854,0.082,2.393v6.48h-0.67v-9.994h0.697
		l5.913,8.859h0.041c-0.041-0.82-0.062-1.6-0.062-2.338v-6.521h0.677V78.362z"/>
	<path fill="#642667" d="M77.547,73.324h3.685v4.56c-0.966,0.41-2.053,0.615-3.261,0.615c-1.577,0-2.785-0.445-3.627-1.337
		c-0.84-0.891-1.261-2.152-1.261-3.783c0-1.016,0.208-1.918,0.626-2.703c0.416-0.787,1.014-1.395,1.791-1.822
		c0.776-0.428,1.669-0.643,2.676-0.643c1.089,0,2.066,0.201,2.933,0.602l-0.28,0.629c-0.866-0.4-1.764-0.602-2.693-0.602
		c-1.317,0-2.361,0.406-3.135,1.221c-0.771,0.812-1.158,1.91-1.158,3.291c0,1.504,0.367,2.635,1.101,3.395
		c0.733,0.758,1.812,1.138,3.233,1.138c0.921,0,1.702-0.13,2.345-0.39V73.98h-2.974V73.324z"/>
	<path fill="#642667" d="M93.393,71.239c0,0.966-0.328,1.706-0.984,2.222s-1.586,0.772-2.789,0.772h-1.545v4.129h-0.697v-9.994
		h2.447C92.203,68.368,93.393,69.325,93.393,71.239z M88.074,73.632h1.374c1.126,0,1.939-0.186,2.44-0.558
		c0.501-0.371,0.752-0.974,0.752-1.808c0-0.771-0.237-1.341-0.711-1.712c-0.474-0.372-1.208-0.558-2.201-0.558h-1.654V73.632z"/>
	<path fill="#642667" d="M100.379,74.835h-4.061l-1.395,3.527h-0.772l4.02-10.035h0.444l3.938,10.035h-0.786L100.379,74.835z
		 M96.571,74.206h3.575l-1.36-3.603c-0.114-0.283-0.251-0.674-0.41-1.176c-0.123,0.438-0.258,0.834-0.403,1.189L96.571,74.206z"/>
	<path fill="#642667" d="M104.665,74.008v4.354h-0.697v-9.994h2.379c1.239,0,2.155,0.229,2.748,0.687
		c0.593,0.459,0.889,1.148,0.889,2.068c0,0.67-0.177,1.234-0.53,1.695c-0.353,0.461-0.89,0.791-1.609,0.991l2.714,4.553h-0.834
		l-2.577-4.354H104.665z M104.665,73.406h1.907c0.843,0,1.497-0.188,1.962-0.564c0.465-0.375,0.697-0.93,0.697-1.664
		c0-0.762-0.228-1.314-0.684-1.661s-1.198-0.52-2.229-0.52h-1.654V73.406z"/>
	<path fill="#642667" d="M114.892,78.362h-0.704v-9.338h-3.247v-0.656h7.198v0.656h-3.247V78.362z"/>
	<path fill="#642667" d="M126.889,78.362h-0.704l-5.92-8.873h-0.055c0.055,1.058,0.082,1.854,0.082,2.393v6.48h-0.67v-9.994h0.697
		l5.913,8.859h0.041c-0.041-0.82-0.062-1.6-0.062-2.338v-6.521h0.677V78.362z"/>
	<path fill="#642667" d="M135.181,78.362h-5.462v-9.994h5.462v0.643h-4.765v3.78h4.498v0.643h-4.498v4.286h4.765V78.362z"/>
	<path fill="#642667" d="M138.141,74.008v4.354h-0.697v-9.994h2.379c1.239,0,2.155,0.229,2.748,0.687
		c0.593,0.459,0.889,1.148,0.889,2.068c0,0.67-0.177,1.234-0.53,1.695c-0.353,0.461-0.89,0.791-1.609,0.991l2.714,4.553h-0.834
		l-2.577-4.354H138.141z M138.141,73.406h1.907c0.843,0,1.497-0.188,1.962-0.564c0.465-0.375,0.697-0.93,0.697-1.664
		c0-0.762-0.228-1.314-0.684-1.661s-1.198-0.52-2.229-0.52h-1.654V73.406z"/>
	<path fill="#642667" d="M157.801,73.352c0,1.586-0.396,2.84-1.189,3.764c-0.793,0.922-1.887,1.384-3.281,1.384
		c-1.39,0-2.481-0.462-3.274-1.384c-0.793-0.924-1.189-2.182-1.189-3.777c0-1.59,0.399-2.843,1.2-3.756
		c0.799-0.914,1.892-1.371,3.277-1.371c1.395,0,2.486,0.459,3.274,1.377C157.406,70.507,157.801,71.762,157.801,73.352z
		 M149.625,73.352c0,1.432,0.319,2.537,0.957,3.318c0.638,0.782,1.554,1.173,2.748,1.173c1.203,0,2.123-0.388,2.758-1.162
		c0.637-0.774,0.954-1.884,0.954-3.329c0-1.439-0.317-2.544-0.954-3.312c-0.635-0.768-1.55-1.151-2.744-1.151
		c-1.189,0-2.106,0.388-2.752,1.162C149.947,70.824,149.625,71.926,149.625,73.352z"/>
	<path fill="#642667" d="M160.795,78.362h-0.697v-9.994h5.476v0.643h-4.778v4.238h4.512v0.649h-4.512V78.362z"/>
	<path fill="#642667" d="M175.027,68.854c-1.253,0-2.24,0.4-2.96,1.203s-1.08,1.9-1.08,3.295c0,1.426,0.34,2.533,1.019,3.322
		s1.649,1.183,2.912,1.183c0.839,0,1.608-0.106,2.311-0.321v0.615c-0.661,0.232-1.485,0.349-2.475,0.349
		c-1.403,0-2.509-0.454-3.315-1.36s-1.21-2.174-1.21-3.801c0-1.016,0.192-1.912,0.577-2.687c0.386-0.774,0.939-1.373,1.662-1.794
		c0.722-0.422,1.562-0.633,2.519-0.633c0.976,0,1.848,0.182,2.618,0.547l-0.28,0.629C176.595,69.035,175.829,68.854,175.027,68.854z
		"/>
	<path fill="#642667" d="M186.696,78.362h-0.704v-4.915h-5.838v4.915h-0.697v-9.994h0.697v4.437h5.838v-4.437h0.704V78.362z"/>
	<path fill="#642667" d="M197.928,73.352c0,1.586-0.396,2.84-1.189,3.764c-0.793,0.922-1.887,1.384-3.281,1.384
		c-1.39,0-2.481-0.462-3.274-1.384c-0.793-0.924-1.189-2.182-1.189-3.777c0-1.59,0.399-2.843,1.2-3.756
		c0.799-0.914,1.892-1.371,3.277-1.371c1.395,0,2.486,0.459,3.274,1.377C197.533,70.507,197.928,71.762,197.928,73.352z
		 M189.752,73.352c0,1.432,0.319,2.537,0.957,3.318c0.638,0.782,1.554,1.173,2.748,1.173c1.203,0,2.123-0.388,2.758-1.162
		c0.637-0.774,0.954-1.884,0.954-3.329c0-1.439-0.317-2.544-0.954-3.312c-0.635-0.768-1.55-1.151-2.744-1.151
		c-1.189,0-2.106,0.388-2.752,1.162C190.074,70.824,189.752,71.926,189.752,73.352z"/>
	<path fill="#642667" d="M200.225,78.362v-9.994h0.697v9.994H200.225z"/>
	<path fill="#642667" d="M208.018,68.854c-1.253,0-2.24,0.4-2.96,1.203s-1.08,1.9-1.08,3.295c0,1.426,0.34,2.533,1.019,3.322
		s1.649,1.183,2.912,1.183c0.839,0,1.608-0.106,2.311-0.321v0.615c-0.661,0.232-1.485,0.349-2.475,0.349
		c-1.403,0-2.509-0.454-3.315-1.36s-1.21-2.174-1.21-3.801c0-1.016,0.192-1.912,0.577-2.687c0.386-0.774,0.939-1.373,1.662-1.794
		c0.722-0.422,1.562-0.633,2.519-0.633c0.976,0,1.848,0.182,2.618,0.547l-0.28,0.629C209.585,69.035,208.819,68.854,208.018,68.854z
		"/>
	<path fill="#642667" d="M217.909,78.362h-5.462v-9.994h5.462v0.643h-4.765v3.78h4.498v0.643h-4.498v4.286h4.765V78.362z"/>
</g>
</svg>
